<svg xmlns="http://www.w3.org/2000/svg" viewBox="0 0 300 278.04"><defs><style>.cls-1{fill:#888;}.cls-2{fill:#fff;}.cls-3{fill:#3e3a39;}.cls-4{fill:#fbfaf8;}.cls-5{fill:#231815;}.cls-6{fill:#ec7459;}.cls-7{fill:#1dacca;}.cls-8{fill:#f3dd24;}.cls-9{fill:#8dc21f;}</style></defs><title>3qlogo</title><g id="レイヤー_2" data-name="レイヤー 2"><g id="レイヤー_1-2" data-name="レイヤー 1"><rect class="cls-1" x="243.8" y="259.09" width="56.2" height="18.96" rx="3.6"/><path class="cls-2" d="M244.84,270.34l39.92,1.14q-5.25-17.53-12.21-34.49l-20.15,1.59Z"/><path class="cls-3" d="M284.76,274h-.07l-39.92-1.14a2.51,2.51,0,0,1-1.93-1,2.54,2.54,0,0,1-.45-2.13L249.94,238a2.5,2.5,0,0,1,2.26-1.93l20.15-1.59a2.52,2.52,0,0,1,2.53,1.56c4.65,11.31,8.79,23,12.3,34.71a2.54,2.54,0,0,1-.42,2.26A2.51,2.51,0,0,1,284.76,274ZM248,267.9l33.3,1c-3.05-9.85-6.55-19.65-10.41-29.19L254.43,241Z"/><ellipse class="cls-2" cx="263.52" cy="225.27" rx="19.72" ry="16.32"/><path class="cls-3" d="M263.52,244.11c-12.27,0-22.24-8.45-22.24-18.84s10-18.84,22.24-18.84,22.24,8.45,22.24,18.84S275.78,244.11,263.52,244.11Zm0-32.64c-9.48,0-17.19,6.19-17.19,13.8s7.71,13.79,17.19,13.79,17.19-6.19,17.19-13.79S273,211.47,263.52,211.47Z"/><line class="cls-2" x1="258.08" y1="221.19" x2="258.08" y2="226.57"/><path class="cls-3" d="M258.08,229.09a2.52,2.52,0,0,1-2.53-2.52v-5.38a2.53,2.53,0,1,1,5.05,0v5.38A2.52,2.52,0,0,1,258.08,229.09Z"/><path class="cls-2" d="M269,221.19v5.38"/><path class="cls-3" d="M269,229.09a2.52,2.52,0,0,1-2.53-2.52v-5.38a2.53,2.53,0,1,1,5.05,0v5.38A2.52,2.52,0,0,1,269,229.09Z"/><polygon class="cls-1" points="39.23 14.67 196.68 14.67 221.9 40.04 221.9 183.25 236.47 202.81 221.9 197.56 221.9 197.79 196.68 223.19 39.23 223.19 13.38 197.49 13.38 40.04 39.23 14.67"/><polygon class="cls-4" points="28.38 2.53 185.82 2.53 211.05 27.9 211.05 171.11 225.62 190.68 211.05 185.42 211.05 185.65 185.82 211.05 28.38 211.05 2.52 185.35 2.52 27.9 28.38 2.53"/><path class="cls-5" d="M186.88,213.58H27.34L0,186.4V26.84L27.35,0H186.88l26.69,26.86V170.27l19.08,25.62-20.78-7.49ZM29.42,208.53H184.77l23.75-23.92v-2.56l3.39,1,6.67,2.41-10.06-13.52v-143L184.77,5.05H29.41L5.05,29V184.3Z"/><path class="cls-3" d="M69.65,61.27v9.64L49,71a46.17,46.17,0,0,1,.54,9.83L69.32,81l0,8.43A161.26,161.26,0,0,0,49,90L50,99.91,79.4,98.37c.51-14.68,1-31.56,1.53-46.25H47.47l.23,9.68C55.78,62.17,61.55,61.49,69.65,61.27Z"/><path class="cls-3" d="M50,101.17A1.26,1.26,0,0,1,48.71,100l-.92-9.93a1.25,1.25,0,0,1,1.14-1.37A164.68,164.68,0,0,1,68,88.12V82.25L49.53,82.1a1.24,1.24,0,0,1-.91-.4,1.26,1.26,0,0,1-.34-.93,45.69,45.69,0,0,0-.53-9.56,1.31,1.31,0,0,1,.28-1,1.26,1.26,0,0,1,1-.44l19.39-.1V62.57c-2.17.08-4.18.18-6.13.28a142.16,142.16,0,0,1-14.62.21,1.26,1.26,0,0,1-1.2-1.23l-.23-9.68a1.27,1.27,0,0,1,.35-.91,1.3,1.3,0,0,1,.91-.38H80.93a1.3,1.3,0,0,1,.91.38,1.32,1.32,0,0,1,.35.93c-.25,7.34-.51,15.23-.76,23.12s-.52,15.78-.77,23.13a1.25,1.25,0,0,1-1.2,1.21L50,101.17Zm.45-10,.69,7.46,27.07-1.42c.24-7,.48-14.49.72-22s.48-14.85.72-21.82H48.76l.17,7.21c4.82.16,8.9-.05,13.2-.26,2.35-.12,4.79-.25,7.49-.32a1.13,1.13,0,0,1,.91.36,1.24,1.24,0,0,1,.39.9v9.64a1.26,1.26,0,0,1-1.26,1.26l-19.19.09a47.27,47.27,0,0,1,.39,7.33l18.47.14A1.27,1.27,0,0,1,70.58,81v8.43a1.31,1.31,0,0,1-.39.91,1.37,1.37,0,0,1-.92.35A162.29,162.29,0,0,0,50.42,91.13Z"/><path class="cls-2" d="M94.51,78.78c0,2,0,5.77-.06,7.78a70.49,70.49,0,0,1,12.83,0c0,2.94.24,6.56.24,6.56l7.54.67c0-5.55,0-8.57,0-14.12C108.46,79.41,94.51,78.78,94.51,78.78Z"/><path class="cls-3" d="M115.06,95.06H115l-7.54-.68a1.26,1.26,0,0,1-1.15-1.16c0-.13-.2-2.83-.24-5.48a65.9,65.9,0,0,0-11.44.08,1.24,1.24,0,0,1-1-.32,1.25,1.25,0,0,1-.42-.94l.07-7.78a1.25,1.25,0,0,1,.39-.91,1.16,1.16,0,0,1,.93-.34s13.94.63,20.57.88a1.28,1.28,0,0,1,1.22,1.27l0,14.13a1.27,1.27,0,0,1-.41.93A1.3,1.3,0,0,1,115.06,95.06ZM108.71,92l5.09.45,0-11.53c-5.61-.22-14.7-.63-18.07-.78l0,5.07a74.31,74.31,0,0,1,11.65.13,1.27,1.27,0,0,1,1.17,1.26C108.53,88.46,108.64,90.67,108.71,92Z"/><path class="cls-2" d="M152.32,76s-17.3.06-26.66.74l-.74,18.59,18,.23.82-12.5,3.09.08s2.11,8.75,2.85,12.4h5.69C154.73,89.46,152.32,76,152.32,76ZM137.37,90.07h-5.5c0-2.31.2-3.62.19-5.93l5.42.33C137.45,86.34,137.41,88.2,137.37,90.07Z"/><path class="cls-3" d="M143,96.83h0l-18-.23a1.23,1.23,0,0,1-.9-.39,1.27,1.27,0,0,1-.35-.92l.74-18.59a1.26,1.26,0,0,1,1.17-1.21c9.29-.68,26.57-.74,26.74-.74h0a1.26,1.26,0,0,1,1.24,1c.1.55,2.42,13.56,3.1,19.62a1.26,1.26,0,0,1-1.25,1.4h-5.69a1.26,1.26,0,0,1-1.24-1c-.58-2.89-2-9.06-2.61-11.41l-.91,0-.74,11.29A1.27,1.27,0,0,1,143,96.83Zm-16.72-2.74,15.54.2.74-11.3a1.28,1.28,0,0,1,1.3-1.18l3.08.08a1.25,1.25,0,0,1,1.19,1c.08.33,1.81,7.45,2.66,11.44H154c-.68-5.3-2.19-14-2.72-17-3.72,0-16.38.15-24.38.66Zm11.13-2.75h-5.5a1.27,1.27,0,0,1-1.27-1.26c0-1.19.05-2.12.1-3s.1-1.77.1-2.9a1.24,1.24,0,0,1,.4-.92,1.3,1.3,0,0,1,.94-.34l5.42.33a1.24,1.24,0,0,1,1.18,1.28l-.1,5.61A1.27,1.27,0,0,1,137.37,91.34Zm-4.22-2.53h3l.07-3.16-2.9-.17c0,.6-.05,1.15-.08,1.7S133.17,88.23,133.15,88.81Z"/><path class="cls-6" d="M50.3,148.57a1.3,1.3,0,0,0,.42,1,1.28,1.28,0,0,0,.8.13l23.09-1a53,53,0,0,0-.16-9.92,109.66,109.66,0,0,1-17,1.62,71.74,71.74,0,0,0-.43-21.2c-8.84-.7-9.15-.61-8.6,8.41Q49.11,138.1,50.3,148.57Z"/><path class="cls-3" d="M51.31,151a2.27,2.27,0,0,1-1.29-.35,2.46,2.46,0,0,1-1-1.9h0c-.8-6.94-1.42-14-1.85-21-.29-4.78-.37-7.33,1.13-8.81s4.13-1.31,8.83-.94a1.26,1.26,0,0,1,1.14,1,72.48,72.48,0,0,1,.61,20.11,109.4,109.4,0,0,0,15.33-1.56,1.25,1.25,0,0,1,1,.23,1.28,1.28,0,0,1,.5.87,54.76,54.76,0,0,1,.16,10.16,1.26,1.26,0,0,1-1.2,1.17l-23.1,1Zm.24-2.54s0,.06,0,.09l21.86-1a53.17,53.17,0,0,0-.1-7.25,110.45,110.45,0,0,1-15.82,1.41,1.31,1.31,0,0,1-1-.42,1.29,1.29,0,0,1-.32-1A69.85,69.85,0,0,0,56,120.37c-2.95-.23-5.22-.34-5.87.3s-.6,3.16-.38,6.85c.42,7,1,14,1.83,20.9Z"/><path class="cls-7" d="M81.21,133.74c5.47-.57,17.52-.68,17.85-.32l.9,11.23,6.58-1.29a147,147,0,0,0-2-17.76l-18.43-.54C80.05,125.54,80.77,127.8,81.21,133.74Z"/><path class="cls-3" d="M100,145.92a1.25,1.25,0,0,1-.76-.26,1.27,1.27,0,0,1-.5-.91l-.82-10.22a159.6,159.6,0,0,0-16.54.46,1.24,1.24,0,0,1-.94-.29,1.26,1.26,0,0,1-.45-.87l-.1-1.34c-.25-3-.43-5.21.88-6.75,1-1.14,2.57-1.72,5.33-1.94l18.56.54a1.27,1.27,0,0,1,1.21,1,147.33,147.33,0,0,1,2,17.9,1.26,1.26,0,0,1-1,1.3l-6.59,1.3A1,1,0,0,1,100,145.92ZM94.1,132c3,0,5.47.15,5.9.63a1.27,1.27,0,0,1,.32.74l.79,9.82,4.11-.81a144,144,0,0,0-1.71-15.5l-17.39-.51c-1.81.15-3,.49-3.47,1.05-.63.75-.49,2.49-.29,4.91v.11C84.75,132.24,90,132,94.1,132Z"/><path class="cls-8" d="M122.78,120.05s.43-3.82.69-6.15h6.05c0,2.31.32,3.51.34,5.81l6.82-.36-.06,5.71-6.23.33.37,4,5.32-.24v5.15l-4.53.81.32,4.58h8l.29-5.35,5.07,0,1,11.17c-6.25.55-21,1.14-21,1.14l-.37-10.09-6.6.93-.82-5.67,6.62-1.53-.55-5-6.73.48v-5.33Z"/><path class="cls-3" d="M125.29,147.88a1.24,1.24,0,0,1-.86-.34,1.23,1.23,0,0,1-.4-.88l-.32-8.69-5.21.74a1.27,1.27,0,0,1-1.43-1.07l-.82-5.67a1.27,1.27,0,0,1,1-1.41l5.52-1.28-.29-2.67-5.52.39a1.28,1.28,0,0,1-1-.33,1.3,1.3,0,0,1-.4-.93v-5.33a1.26,1.26,0,0,1,1.19-1.26l4.87-.3.57-5.1a1.27,1.27,0,0,1,1.26-1.12h6.05a1.27,1.27,0,0,1,1.26,1.25c0,1.11.09,2,.17,2.8.05.54.1,1.09.13,1.69l5.53-.29a1.22,1.22,0,0,1,.94.34,1.31,1.31,0,0,1,.39.93l-.06,5.71a1.27,1.27,0,0,1-1.19,1.25l-4.92.27.14,1.47,4.12-.19a1.12,1.12,0,0,1,.93.35,1.25,1.25,0,0,1,.39.91v5.14a1.27,1.27,0,0,1-1,1.25l-3.43.61.17,2.28h5.62l.23-4.14a1.28,1.28,0,0,1,1.26-1.2l5.07,0h0a1.26,1.26,0,0,1,1.26,1.15l1,11.17a1.27,1.27,0,0,1-1.15,1.37c-6.21.54-20.89,1.13-21,1.14Zm-.37-12.62a1.27,1.27,0,0,1,.81.3,1.24,1.24,0,0,1,.45.92l.32,8.82c3.42-.14,12.95-.56,18.4-1l-.81-8.75h-2.72l-.23,4.15a1.26,1.26,0,0,1-1.26,1.2h-8a1.27,1.27,0,0,1-1.26-1.18l-.32-4.57a1.26,1.26,0,0,1,1-1.33l3.5-.63v-2.77l-4,.18a1.25,1.25,0,0,1-1.31-1.14l-.38-4a1.27,1.27,0,0,1,1.19-1.38l5.05-.27,0-3.18-5.47.29a1.11,1.11,0,0,1-.93-.34,1.27,1.27,0,0,1-.4-.9c0-1.12-.09-2-.17-2.8-.05-.57-.1-1.13-.14-1.77H124.6l-.57,5a1.24,1.24,0,0,1-1.17,1.12l-4.75.3v2.79l5.37-.39a1.25,1.25,0,0,1,1.34,1.12l.55,5a1.27,1.27,0,0,1-1,1.37l-5.48,1.27.47,3.27,5.36-.75ZM122.78,120h0Z"/><path class="cls-9" d="M157.83,144.65,170,137.78s5.66,1.82,8.33,3.82l7.1-11.93-5.59-2.49-3.44,6.28a32.4,32.4,0,0,1-6.15-2.16L164,134.23l-.1-15.35-6.71.18Z"/><path class="cls-3" d="M157.83,145.92a1.28,1.28,0,0,1-1.26-1.24l-.6-25.59a1.26,1.26,0,0,1,1.23-1.29l6.71-.18a1.2,1.2,0,0,1,.91.35,1.27,1.27,0,0,1,.38.9l.09,13.37,4.38-2.08a1.29,1.29,0,0,1,1.12,0,28,28,0,0,0,5,1.82l3-5.42a1.25,1.25,0,0,1,1.62-.55l5.6,2.5a1.25,1.25,0,0,1,.69.77,1.33,1.33,0,0,1-.12,1l-7.11,11.92a1.2,1.2,0,0,1-.83.59,1.25,1.25,0,0,1-1-.22c-2-1.51-6-3-7.43-3.45l-11.66,6.59A1.26,1.26,0,0,1,157.83,145.92Zm.69-25.63.52,22.23,10.31-5.84a1.31,1.31,0,0,1,1-.1,44.12,44.12,0,0,1,7.53,3.24l5.7-9.58-3.23-1.44-2.88,5.26a1.27,1.27,0,0,1-1.4.63,36,36,0,0,1-5.87-2l-5.63,2.67a1.26,1.26,0,0,1-1.81-1.13l-.08-14.06Z"/><rect class="cls-5" x="261" y="188" width="2.52" height="3.04"/><rect class="cls-5" x="273.12" y="186.15" width="2.96" height="2.52" transform="translate(1.81 377.45) rotate(-69.18)"/><rect class="cls-5" x="279.42" y="193.32" width="2.85" height="2.52" transform="translate(-58.85 231.27) rotate(-40.88)"/><path class="cls-5" d="M261,186.49a10.36,10.36,0,0,1-.15-3.51l.13-1,1-.06a10.72,10.72,0,0,0,2.31-.38v-2.7a41.74,41.74,0,0,0-6,.13,14.87,14.87,0,0,0,.14,2.4l-2.5.35a16.82,16.82,0,0,1-.09-4l.1-1,1-.13a43.18,43.18,0,0,1,8.73-.17l1.16.09v6.85l-.83.3a13.56,13.56,0,0,1-2.74.68,7.83,7.83,0,0,0,.18,1.67Z"/><path class="cls-5" d="M276.5,184.75l-2.5-.35a10.33,10.33,0,0,1,1.05-3.34l.48-.94,1,.3a10.6,10.6,0,0,0,2.3.43l.92-2.53a39.33,39.33,0,0,0-5.69-1.94,13.66,13.66,0,0,0-.69,2.29l-2.47-.52a17.63,17.63,0,0,1,1.28-3.79l.44-.92,1,.23a44,44,0,0,1,8.26,2.82l1.06.49-2.34,6.43h-.89a14,14,0,0,1-2.81-.29A8.09,8.09,0,0,0,276.5,184.75Z"/><path class="cls-5" d="M288.53,194.34l-.76-.44a13.32,13.32,0,0,1-2.29-1.65,7.38,7.38,0,0,0-1.16,1.21l-2-1.55a10.47,10.47,0,0,1,2.59-2.38l.88-.57.72.77a11.18,11.18,0,0,0,1.78,1.52l2.07-1.73a40.74,40.74,0,0,0-4-4.53,14.28,14.28,0,0,0-1.74,1.65l-1.88-1.7a18,18,0,0,1,3-2.63l.84-.58.74.69A42.33,42.33,0,0,1,293.1,189l.67.94Z"/></g></g></svg>